<svg width="512" height="512" viewBox="0 0 512 512" fill="none" xmlns="http://www.w3.org/2000/svg">
<path d="M65.328 290.859L101.666 294.359C105.553 309.806 111.769 324.571 120.1 338.147L96.965 366.084C95.853 367.426 95.2819 369.135 95.3635 370.877C95.445 372.618 96.1734 374.266 97.406 375.499L136.751 414.843C137.984 416.076 139.632 416.804 141.373 416.886C143.114 416.968 144.823 416.397 146.166 415.285L174.15 392.11C187.733 400.402 202.474 406.628 217.889 410.582L221.389 446.797C221.562 448.515 222.374 450.106 223.665 451.254C224.955 452.402 226.629 453.024 228.356 452.997H284.136C285.863 453.024 287.537 452.402 288.827 451.254C290.118 450.106 290.93 448.515 291.103 446.797L294.603 410.522C310.049 406.647 324.814 400.443 338.391 392.122L366.327 415.273C367.669 416.386 369.377 416.958 371.118 416.878C372.86 416.797 374.508 416.07 375.742 414.839L415.087 375.499C416.319 374.266 417.047 372.618 417.129 370.878C417.21 369.137 416.639 367.428 415.528 366.086L392.358 338.101C400.651 324.516 406.877 309.774 410.831 294.357L446.68 290.857C448.41 290.688 450.016 289.881 451.184 288.593C452.353 287.306 453 285.629 453 283.891V228.111C453 226.371 452.352 224.693 451.182 223.404C450.012 222.116 448.404 221.31 446.672 221.143L410.334 217.643C406.447 202.196 400.231 187.431 391.9 173.855L415.035 145.918C416.142 144.581 416.713 142.881 416.637 141.147C416.561 139.414 415.844 137.77 414.625 136.535L375.778 97.1898C374.548 95.9439 372.896 95.2043 371.147 95.1167C369.398 95.0292 367.68 95.6 366.332 96.7168L338.348 119.892C324.765 111.599 310.024 105.374 294.609 101.42L291.109 65.2048C290.936 63.4863 290.124 61.8956 288.833 60.7474C287.543 59.5992 285.869 58.9773 284.142 59.0048H228.362C226.635 58.9773 224.961 59.5992 223.671 60.7474C222.38 61.8956 221.568 63.4863 221.395 65.2048L217.895 101.48C202.45 105.354 187.685 111.559 174.109 119.88L146.166 96.7328C144.824 95.6197 143.116 95.0473 141.375 95.1274C139.633 95.2074 137.985 95.9343 136.751 97.1658L97.406 136.507C96.1739 137.739 95.446 139.387 95.3644 141.128C95.2828 142.869 95.8536 144.577 96.965 145.92L120.14 173.901C111.848 187.483 105.622 202.224 101.668 217.639L65.328 221.139C63.5951 221.306 61.9867 222.113 60.8167 223.402C59.6466 224.691 58.9989 226.37 59 228.111V283.891C58.9999 285.631 59.6481 287.309 60.818 288.597C61.9879 289.885 63.5958 290.692 65.328 290.859ZM73 234.469L108.009 231.095C109.487 230.952 110.881 230.344 111.99 229.357C113.099 228.37 113.865 227.057 114.179 225.606C118.017 208.343 124.947 191.917 134.634 177.122C135.441 175.872 135.828 174.397 135.74 172.912C135.652 171.426 135.093 170.008 134.144 168.862L111.812 141.901L142.145 111.568L169.11 133.901C170.27 134.861 171.708 135.422 173.212 135.5C174.716 135.578 176.205 135.169 177.458 134.334C192.185 124.588 208.598 117.67 225.858 113.934C227.3 113.647 228.612 112.905 229.6 111.816C230.588 110.728 231.201 109.351 231.347 107.888L234.717 73.0008H277.781L281.155 107.885C281.299 109.355 281.91 110.741 282.897 111.839C283.885 112.938 285.198 113.693 286.644 113.993C303.905 117.82 320.331 124.739 335.128 134.417C336.38 135.221 337.855 135.606 339.341 135.515C340.826 135.424 342.244 134.862 343.388 133.911L370.322 111.601L400.214 141.872L377.856 168.872C376.896 170.032 376.335 171.47 376.257 172.974C376.18 174.477 376.589 175.966 377.424 177.219C387.169 191.946 394.087 208.359 397.824 225.619C398.138 227.07 398.905 228.383 400.014 229.369C401.123 230.356 402.517 230.964 403.994 231.107L439 234.469V277.541L404.481 280.908C403.005 281.052 401.613 281.661 400.505 282.647C399.398 283.634 398.632 284.946 398.319 286.396C394.48 303.658 387.551 320.084 377.864 334.88C377.057 336.13 376.67 337.605 376.758 339.09C376.846 340.575 377.405 341.994 378.354 343.14L400.686 370.101L370.354 400.434L343.388 378.102C342.228 377.141 340.79 376.58 339.286 376.502C337.782 376.424 336.293 376.833 335.04 377.669C320.313 387.414 303.9 394.332 286.64 398.069C285.198 398.355 283.886 399.098 282.898 400.186C281.91 401.275 281.297 402.652 281.151 404.115L277.781 439.001H234.717L231.343 404.117C231.199 402.647 230.588 401.261 229.601 400.162C228.613 399.063 227.3 398.309 225.854 398.009C208.593 394.182 192.167 387.262 177.37 377.585C176.118 376.78 174.643 376.395 173.157 376.486C171.672 376.577 170.254 377.139 169.11 378.091L142.145 400.43L111.812 370.101L134.144 343.137C135.104 341.977 135.665 340.539 135.743 339.035C135.82 337.531 135.411 336.043 134.576 334.79C124.831 320.062 117.913 303.649 114.176 286.39C113.862 284.939 113.095 283.626 111.986 282.639C110.877 281.653 109.483 281.044 108.006 280.902L73 277.533V234.469Z" fill="#202020"/>
<path d="M256.249 371.598C279.113 371.598 301.463 364.818 320.473 352.116C339.483 339.413 354.3 321.359 363.049 300.236C371.799 279.113 374.088 255.87 369.627 233.445C365.167 211.021 354.157 190.423 337.99 174.257C321.823 158.09 301.225 147.08 278.801 142.62C256.376 138.159 233.133 140.449 212.01 149.198C190.887 157.948 172.833 172.764 160.13 191.775C147.428 210.785 140.648 233.135 140.648 255.998C140.683 286.647 152.874 316.03 174.546 337.702C196.218 359.373 225.601 371.564 256.249 371.598ZM256.249 154.398C276.344 154.399 295.987 160.358 312.695 171.522C329.403 182.686 342.425 198.554 350.115 217.119C357.805 235.684 359.816 256.112 355.896 275.82C351.976 295.529 342.299 313.632 328.09 327.841C313.881 342.05 295.778 351.726 276.069 355.646C256.361 359.567 235.932 357.554 217.368 349.865C198.803 342.175 182.935 329.152 171.771 312.444C160.607 295.736 154.648 276.093 154.648 255.998C154.679 229.062 165.394 203.237 184.441 184.19C203.488 165.143 229.313 154.429 256.249 154.398Z" fill="#202020"/>
<path d="M238.234 289.262C239.542 290.538 241.297 291.253 243.124 291.253C244.952 291.253 246.707 290.538 248.014 289.262L305.89 232.757C306.556 232.116 307.089 231.351 307.457 230.504C307.826 229.657 308.023 228.745 308.037 227.821C308.052 226.898 307.884 225.98 307.542 225.122C307.2 224.264 306.692 223.482 306.047 222.821C305.402 222.16 304.632 221.633 303.782 221.271C302.932 220.909 302.019 220.719 301.095 220.711C300.172 220.704 299.256 220.879 298.4 221.227C297.544 221.575 296.766 222.089 296.11 222.74L243.124 274.471L215.89 247.881C215.232 247.238 214.455 246.732 213.601 246.391C212.748 246.049 211.835 245.879 210.916 245.89C209.997 245.901 209.089 246.093 208.244 246.455C207.399 246.817 206.633 247.342 205.991 248C205.349 248.657 204.843 249.435 204.501 250.289C204.16 251.142 203.989 252.055 204.001 252.974C204.012 253.893 204.204 254.801 204.566 255.646C204.927 256.491 205.452 257.256 206.11 257.899L238.234 289.262Z" fill="#202020"/>
</svg>
