<svg width="18" height="18" viewBox="0 0 18 18" fill="none" xmlns="http://www.w3.org/2000/svg">
<path d="M1.96209 14.7121C1.59597 15.0782 1.59597 15.6718 1.96209 16.0379C2.3282 16.404 2.9218 16.404 3.28791 16.0379L1.96209 14.7121ZM16.0379 3.28791C16.404 2.9218 16.404 2.3282 16.0379 1.96209C15.6718 1.59597 15.0782 1.59597 14.7121 1.96209L16.0379 3.28791ZM3.28791 16.0379L8.91292 10.4129L7.58708 9.08708L1.96209 14.7121L3.28791 16.0379ZM10.4129 8.91292L16.0379 3.28791L14.7121 1.96209L9.08708 7.58708L10.4129 8.91292Z" fill="#B5B4B4"/>
<path d="M4.65276 1.6875H3.20337C2.39544 1.6875 1.99146 1.6875 1.82256 1.90016C1.76988 1.96647 1.73287 2.04382 1.71426 2.12645C1.65462 2.39139 1.90804 2.70598 2.41489 3.33517L12.5649 15.9352C12.6974 16.0997 12.7637 16.1819 12.851 16.2338C12.8798 16.2509 12.91 16.2653 12.9414 16.277C13.0365 16.3125 13.1421 16.3125 13.3534 16.3125H14.7974C15.6051 16.3125 16.0089 16.3125 16.1778 16.0999C16.2306 16.0336 16.2675 15.9563 16.2861 15.8736C16.3458 15.6088 16.0926 15.2942 15.586 14.6651L5.44141 2.06504C5.3089 1.90045 5.24265 1.81815 5.15533 1.76632C5.12652 1.74921 5.09624 1.73471 5.06484 1.723C4.96971 1.6875 4.86406 1.6875 4.65276 1.6875Z" fill="#B5B4B4"/>
</svg>
