<svg width="18" height="18" viewBox="0 0 18 18" fill="none" xmlns="http://www.w3.org/2000/svg">
<path d="M8.85 16.3125H9.15C9.71242 16.3125 9.99367 16.3125 10.1908 16.1693C10.2545 16.123 10.3105 16.067 10.3567 16.0033C10.5 15.8062 10.5 15.5249 10.5 14.9625V10.2188H11.4C11.9624 10.2188 12.2437 10.2188 12.4408 10.0755C12.5045 10.0292 12.5605 9.97328 12.6067 9.9096C12.75 9.71243 12.75 9.43117 12.75 8.86875V8.72497C12.75 8.16255 12.75 7.8813 12.6067 7.68412C12.5605 7.62052 12.5045 7.5645 12.4408 7.51822C12.2437 7.375 11.9624 7.375 11.4 7.375H10.5V5.65625C10.5 5.3068 10.5 5.13206 10.5571 4.99424C10.6332 4.81047 10.7792 4.66446 10.963 4.58834C11.1008 4.53125 11.2756 4.53125 11.625 4.53125C11.9744 4.53125 12.1492 4.53125 12.287 4.47416C12.4708 4.39804 12.6168 4.25203 12.6929 4.06826C12.75 3.93043 12.75 3.75571 12.75 3.40625V2.85417C12.75 2.46554 12.75 2.27123 12.6797 2.12053C12.6052 1.96073 12.4768 1.83229 12.3169 1.75777C12.1663 1.6875 11.9719 1.6875 11.5833 1.6875C10.2232 1.6875 9.54307 1.6875 9.0156 1.93344C8.45632 2.19426 8.00677 2.6438 7.74592 3.20313C7.5 3.73055 7.5 4.41065 7.5 5.77084V7.375H6.6C6.03754 7.375 5.75631 7.375 5.55916 7.51822C5.49549 7.5645 5.43949 7.62052 5.39323 7.68412C5.25 7.8813 5.25 8.16255 5.25 8.72497V8.86875C5.25 9.43117 5.25 9.71243 5.39323 9.9096C5.43949 9.97328 5.49549 10.0292 5.55916 10.0755C5.75631 10.2188 6.03754 10.2188 6.6 10.2188H7.5V14.9625C7.5 15.5249 7.5 15.8062 7.64325 16.0033C7.68952 16.067 7.74547 16.123 7.80915 16.1693C8.00632 16.3125 8.28758 16.3125 8.85 16.3125Z" fill="#B5B4B4"/>
</svg>
