<svg width="18" height="18" viewBox="0 0 18 18" fill="none" xmlns="http://www.w3.org/2000/svg">
<path fill-rule="evenodd" clip-rule="evenodd" d="M1.6875 8.1C1.6875 5.42831 1.6875 4.09247 2.36788 3.15602C2.58761 2.85358 2.85358 2.58761 3.15602 2.36788C4.09247 1.6875 5.42831 1.6875 8.1 1.6875H9.9C12.5716 1.6875 13.9075 1.6875 14.844 2.36788C15.1464 2.58761 15.4124 2.85358 15.6321 3.15602C16.3125 4.09247 16.3125 5.42831 16.3125 8.1V9.9C16.3125 12.5716 16.3125 13.9075 15.6321 14.844C15.4124 15.1464 15.1464 15.4124 14.844 15.6321C13.9075 16.3125 12.5716 16.3125 9.9 16.3125H8.1C5.42831 16.3125 4.09247 16.3125 3.15602 15.6321C2.85358 15.4124 2.58761 15.1464 2.36788 14.844C1.6875 13.9075 1.6875 12.5716 1.6875 9.9V8.1ZM5.625 7.3125C5.93566 7.3125 6.1875 7.56435 6.1875 7.875V12.375C6.1875 12.6856 5.93566 12.9375 5.625 12.9375C5.31434 12.9375 5.0625 12.6856 5.0625 12.375V7.875C5.0625 7.56435 5.31434 7.3125 5.625 7.3125ZM8.25 7.3125C8.56065 7.3125 8.8125 7.56435 8.8125 7.875V8.04457C9.35798 7.5876 10.0609 7.3125 10.8281 7.3125C11.9931 7.3125 12.9375 8.2569 12.9375 9.42188V12.375C12.9375 12.6856 12.6856 12.9375 12.375 12.9375C12.0644 12.9375 11.8125 12.6856 11.8125 12.375V9.42188C11.8125 8.8782 11.3718 8.4375 10.8281 8.4375C9.7149 8.4375 8.8125 9.3399 8.8125 10.4531V12.375C8.8125 12.6856 8.56065 12.9375 8.25 12.9375C7.93935 12.9375 7.6875 12.6856 7.6875 12.375V10.4531V7.875C7.6875 7.56435 7.93935 7.3125 8.25 7.3125ZM5.625 6.375C6.03921 6.375 6.375 6.03921 6.375 5.625C6.375 5.21079 6.03921 4.875 5.625 4.875C5.21079 4.875 4.875 5.21079 4.875 5.625C4.875 6.03921 5.21079 6.375 5.625 6.375Z" fill="#B5B4B4"/>
</svg>
