<svg width="18" height="18" viewBox="0 0 18 18" fill="none" xmlns="http://www.w3.org/2000/svg">
<path fill-rule="evenodd" clip-rule="evenodd" d="M9.9 1.6875H8.1C5.42831 1.6875 4.09247 1.6875 3.15602 2.36788C2.85358 2.58761 2.58761 2.85358 2.36788 3.15602C1.6875 4.09247 1.6875 5.42831 1.6875 8.1V9.9C1.6875 12.5716 1.6875 13.9075 2.36788 14.844C2.58761 15.1464 2.85358 15.4124 3.15602 15.6321C4.09247 16.3125 5.42831 16.3125 8.1 16.3125H9.9C12.5716 16.3125 13.9075 16.3125 14.844 15.6321C15.1464 15.4124 15.4124 15.1464 15.6321 14.844C16.3125 13.9075 16.3125 12.5716 16.3125 9.9V8.1C16.3125 5.42831 16.3125 4.09247 15.6321 3.15602C15.4124 2.85358 15.1464 2.58761 14.844 2.36788C13.9075 1.6875 12.5716 1.6875 9.9 1.6875ZM12 9C12 10.6568 10.6568 12 9 12C7.34314 12 6 10.6568 6 9C6 7.34314 7.34314 6 9 6C10.6568 6 12 7.34314 12 9ZM13.125 5.625C13.5392 5.625 13.875 5.28921 13.875 4.875C13.875 4.46079 13.5392 4.125 13.125 4.125C12.7108 4.125 12.375 4.46079 12.375 4.875C12.375 5.28921 12.7108 5.625 13.125 5.625Z" fill="#B5B4B4"/>
</svg>
