<svg width="31" height="31" viewBox="0 0 31 31" fill="none" xmlns="http://www.w3.org/2000/svg">
<g clip-path="url(#clip0_38_132)">
<path d="M27.3095 0C25.2754 0 23.6191 1.65629 23.6191 3.69045C23.6191 5.47219 24.8886 6.96317 26.5715 7.30562V14.7619H16.2381V7.30569C17.921 6.96324 19.1905 5.47226 19.1905 3.69052C19.1905 1.65629 17.5342 0 15.5 0C13.4658 0 11.8095 1.65629 11.8095 3.69045C11.8095 5.47219 13.0791 6.96317 14.762 7.30562V14.7619H4.42857V7.30569C6.11143 6.96324 7.38098 5.47226 7.38098 3.69052C7.38098 1.65629 5.72469 0 3.69045 0C1.65622 0 0 1.65629 0 3.69045C0 5.47219 1.26955 6.96317 2.9524 7.30562V23.6943C1.26955 24.0368 0 25.5277 0 27.3095C0 29.3437 1.65629 31 3.69045 31C5.72462 31 7.38091 29.3437 7.38091 27.3095C7.38091 25.5278 6.11136 24.0368 4.4285 23.6944V16.2381H14.7618V23.6944C13.079 24.0368 11.8094 25.5278 11.8094 27.3095C11.8095 29.3437 13.4658 31 15.5 31C17.5342 31 19.1905 29.3437 19.1905 27.3095C19.1905 25.5278 17.9209 24.0368 16.238 23.6944V16.2381H27.3095C27.7169 16.2381 28.0476 15.9074 28.0476 15.5V7.30569C29.7305 6.96317 31 5.47226 31 3.69045C31 1.65629 29.3437 0 27.3095 0ZM5.90474 27.3095C5.90474 28.5304 4.91129 29.5238 3.69045 29.5238C2.46962 29.5238 1.47617 28.5304 1.47617 27.3095C1.47617 26.0887 2.46962 25.0953 3.69045 25.0953C4.91129 25.0953 5.90474 26.0887 5.90474 27.3095ZM3.69045 5.90474C2.46962 5.90474 1.47617 4.91129 1.47617 3.69045C1.47617 2.46962 2.46962 1.47617 3.69045 1.47617C4.91129 1.47617 5.90474 2.46962 5.90474 3.69045C5.90474 4.91129 4.91129 5.90474 3.69045 5.90474ZM17.7143 27.3095C17.7143 28.5304 16.7208 29.5238 15.5 29.5238C14.2792 29.5238 13.2857 28.5304 13.2857 27.3095C13.2857 26.0887 14.2792 25.0953 15.5 25.0953C16.7208 25.0953 17.7143 26.0887 17.7143 27.3095ZM15.5 5.90474C14.2792 5.90474 13.2857 4.91129 13.2857 3.69045C13.2857 2.46962 14.2792 1.47617 15.5 1.47617C16.7208 1.47617 17.7143 2.46962 17.7143 3.69045C17.7143 4.91129 16.7208 5.90474 15.5 5.90474ZM27.3095 5.90474C26.0887 5.90474 25.0953 4.91129 25.0953 3.69045C25.0953 2.46962 26.0887 1.47617 27.3095 1.47617C28.5304 1.47617 29.5238 2.46962 29.5238 3.69045C29.5238 4.91129 28.5303 5.90474 27.3095 5.90474Z" fill="#161618"/>
</g>
<defs>
<clipPath id="clip0_38_132">
<rect width="31" height="31" fill="white"/>
</clipPath>
</defs>
</svg>
