<svg width="61" height="60" viewBox="0 0 61 60" fill="none" xmlns="http://www.w3.org/2000/svg">
<path fill-rule="evenodd" clip-rule="evenodd" d="M50.7395 59.9977H25.0766C25.0426 59.9977 25.0086 59.9954 24.9746 59.9907C23.4899 59.7716 22.3918 59.1704 21.7098 58.2059C20.825 56.9532 20.9727 55.5106 21.0254 55.1579V27.9938C20.5356 24.7641 23.4231 20.7903 25.1961 18.7009C28.2629 15.0856 33.0735 11.1844 35.5004 11.1844C35.566 11.1844 35.6328 11.1868 35.6961 11.1927H40.1199C40.1844 11.1868 40.25 11.1844 40.3156 11.1844C42.7426 11.1844 47.5543 15.0856 50.6211 18.7009C52.3942 20.7903 55.2805 24.7641 54.7906 27.9938V55.1579C54.8434 55.5106 54.991 56.9532 54.1063 58.2048C53.4242 59.1704 52.3262 59.7716 50.8426 59.9907C50.8086 59.9954 50.7735 59.9977 50.7395 59.9977ZM25.1293 58.5927H50.6867C51.7496 58.4262 52.5137 58.0231 52.9578 57.3938C53.5989 56.4868 53.4008 55.363 53.3985 55.3512C53.3891 55.3067 53.3844 55.261 53.3844 55.2153V27.9387C53.3844 27.9001 53.3879 27.8614 53.3938 27.8239C53.7172 25.8657 52.3156 22.8727 49.5488 19.6102C46.1399 15.593 41.8625 12.5907 40.3156 12.5907C40.2852 12.5907 40.2559 12.5919 40.2289 12.5942C40.2043 12.5977 40.1797 12.5989 40.1539 12.5989H35.6621C35.6375 12.5989 35.6117 12.5977 35.5871 12.5942C35.5602 12.5919 35.5309 12.5907 35.5004 12.5907C33.9535 12.5907 29.6762 15.5919 26.2684 19.6102C23.5004 22.8716 22.0988 25.8657 22.4223 27.8239C22.4281 27.8614 22.4317 27.9001 22.4317 27.9387V55.2153C22.4317 55.261 22.427 55.3067 22.4188 55.3512C22.4176 55.3594 22.216 56.4973 22.8664 57.4055C23.3117 58.0278 24.0735 58.4274 25.1293 58.5927Z" fill="#161618"/>
<path fill-rule="evenodd" clip-rule="evenodd" d="M37.9086 31.3817C33.9523 31.3817 30.7344 28.1637 30.7344 24.2086C30.7344 20.2524 33.9523 17.0344 37.9086 17.0344C41.8637 17.0344 45.0816 20.2536 45.0816 24.2086C45.0816 28.1637 41.8637 31.3817 37.9086 31.3817ZM37.9086 18.4407C34.7281 18.4407 32.1406 21.0282 32.1406 24.2086C32.1406 27.3891 34.7281 29.9754 37.9086 29.9754C41.0879 29.9754 43.6754 27.3891 43.6754 24.2086C43.6754 21.0282 41.0879 18.4407 37.9086 18.4407Z" fill="#161618"/>
<path fill-rule="evenodd" clip-rule="evenodd" d="M43.4633 21.5918C43.2148 21.5918 42.9746 21.4594 42.8469 21.2274C42.6594 20.8864 42.7836 20.4598 43.1234 20.2723C44.5227 19.5024 47.9094 16.9184 49.1316 9.58012C49.5676 6.9645 49.25 4.9395 48.1871 3.56137C47.007 2.0309 45.1215 1.55864 43.7492 1.4309C41.3879 1.21293 39.9559 2.53364 39.1719 3.6809C37.6379 5.92504 37.3707 9.24731 38.5367 11.5817C38.7102 11.9286 38.5695 12.3504 38.2227 12.5239C37.8746 12.6985 37.4527 12.5567 37.2793 12.2098C35.8977 9.4477 36.2059 5.5266 38.0117 2.88754C39.4203 0.826214 41.5027 -0.18863 43.8781 0.031683C45.5293 0.184027 47.8109 0.771136 49.3004 2.70239C50.6117 4.40395 51.0219 6.79457 50.5191 9.81098C49.1949 17.7563 45.3793 20.6356 43.8008 21.5039C43.6941 21.5625 43.5781 21.5918 43.4633 21.5918Z" fill="#161618"/>
<path fill-rule="evenodd" clip-rule="evenodd" d="M37.9086 51.3728C35.634 51.3728 33.7836 49.7837 33.7836 47.829C33.7836 47.4411 34.0988 47.1259 34.4867 47.1259C34.8746 47.1259 35.1898 47.4411 35.1898 47.829C35.1898 49.0079 36.4086 49.9677 37.9086 49.9677C39.4074 49.9677 40.6261 49.0079 40.6261 47.829C40.6261 46.6501 39.4074 45.6904 37.9086 45.6904C35.634 45.6904 33.7836 44.1001 33.7836 42.1454C33.7836 40.1907 35.634 38.6017 37.9086 38.6017C40.182 38.6017 42.0324 40.1907 42.0324 42.1454C42.0324 42.5345 41.7172 42.8486 41.3293 42.8486C40.9414 42.8486 40.6261 42.5345 40.6261 42.1454C40.6261 40.9665 39.4074 40.0079 37.9086 40.0079C36.4086 40.0079 35.1898 40.9665 35.1898 42.1454C35.1898 43.3255 36.4086 44.2841 37.9086 44.2841C40.182 44.2841 42.0324 45.8743 42.0324 47.829C42.0324 49.7837 40.182 51.3728 37.9086 51.3728Z" fill="#161618"/>
<path fill-rule="evenodd" clip-rule="evenodd" d="M37.9086 52.8341C37.5195 52.8341 37.2054 52.5201 37.2054 52.131V37.8435C37.2054 37.4544 37.5195 37.1404 37.9086 37.1404C38.2965 37.1404 38.6105 37.4544 38.6105 37.8435V52.1322C38.6105 52.5201 38.2965 52.8341 37.9086 52.8341Z" fill="#161618"/>
<path fill-rule="evenodd" clip-rule="evenodd" d="M37.9086 55.6536C32.027 55.6536 27.2422 50.8689 27.2422 44.9872C27.2422 39.1056 32.027 34.3208 37.9086 34.3208C43.7891 34.3208 48.5738 39.1056 48.5738 44.9872C48.5738 50.8689 43.7891 55.6536 37.9086 55.6536ZM37.9086 35.7271C32.8027 35.7271 28.6484 39.8814 28.6484 44.9872C28.6484 50.0931 32.8027 54.2474 37.9086 54.2474C43.0133 54.2474 47.1676 50.0931 47.1676 44.9872C47.1676 39.8814 43.0133 35.7271 37.9086 35.7271Z" fill="#161618"/>
<path fill-rule="evenodd" clip-rule="evenodd" d="M21.7813 57.361C21.7145 57.361 21.6465 57.3505 21.5797 57.3306L8.56604 53.4353C8.53323 53.4247 8.50042 53.413 8.46995 53.3978C7.35315 52.8763 6.62893 52.1403 6.31721 51.2122C5.91878 50.0263 6.35706 48.9317 6.49182 48.6411L12.6735 27.9962C13.2887 23.7411 21.4215 19.2528 25.6285 18.429C25.9215 18.3716 26.2192 18.5063 26.3703 18.7642C26.5215 19.022 26.4922 19.3466 26.2989 19.5739C23.511 22.8505 22.0977 25.8575 22.4223 27.8239C22.4282 27.8614 22.4317 27.9001 22.4317 27.9388V55.2153C22.4317 55.261 22.427 55.3067 22.4188 55.3513C22.4188 55.3524 22.3297 55.8505 22.4551 56.4481C22.4762 56.5149 22.4867 56.5853 22.4867 56.6579C22.4867 57.0446 22.1739 57.3587 21.7871 57.361C21.7848 57.361 21.7836 57.361 21.7813 57.361ZM9.02073 52.1028L20.9821 55.6841C20.9867 55.4415 21.0102 55.2575 21.0254 55.1567V27.9938C20.6481 25.5048 22.2758 22.5739 23.8602 20.3978C19.7246 21.9071 14.4114 25.4884 14.0598 28.2353C14.0551 28.2728 14.0469 28.3103 14.0364 28.3478L7.82307 49.097C7.81018 49.1415 7.79261 49.1837 7.77151 49.2235C7.77034 49.2271 7.38596 49.997 7.65432 50.7763C7.83831 51.3095 8.29768 51.756 9.02073 52.1028Z" fill="#161618"/>
</svg>
