<svg width="60" height="60" viewBox="0 0 60 60" fill="none" xmlns="http://www.w3.org/2000/svg">
<path d="M48.8064 51.7121V38.6847C48.8064 38.3535 48.5377 38.0847 48.2064 38.0847C47.8752 38.0847 47.6064 38.3535 47.6064 38.6847V51.7121C47.6064 53.4457 46.1963 54.8558 44.4631 54.8558H22.9451C21.2135 54.8558 19.8049 53.4472 19.8049 51.7152V47.0707C19.8049 46.7394 19.5361 46.4707 19.2049 46.4707C18.8736 46.4707 18.6049 46.7394 18.6049 47.0707V51.7152C18.6049 54.1089 20.5517 56.0558 22.9451 56.0558H44.4631C46.858 56.0558 48.8064 54.1074 48.8064 51.7121Z" fill="black"/>
<path d="M48.2064 23.4332C48.5377 23.4332 48.8064 23.1644 48.8064 22.8332V8.28394C48.8064 5.89097 46.8595 3.94409 44.4662 3.94409H22.9451C20.5517 3.94409 18.6049 5.89097 18.6049 8.28394V11.1097C18.6049 11.441 18.8736 11.7097 19.2049 11.7097C19.5361 11.7097 19.8049 11.441 19.8049 11.1097V8.28394C19.8049 6.55269 21.2135 5.14409 22.9451 5.14409H44.4662C46.1978 5.14409 47.6064 6.55269 47.6064 8.28394V22.8332C47.6064 23.1644 47.8752 23.4332 48.2064 23.4332Z" fill="black"/>
<path d="M39.3502 9.68938C39.3502 8.50891 38.3896 7.54797 37.2052 7.54797L31.4017 7.58625C30.2213 7.58625 29.2611 8.54641 29.2611 9.72688C29.2611 10.9073 30.2213 11.8683 31.4056 11.8683L37.2092 11.83C38.3896 11.83 39.3502 10.8698 39.3502 9.68938ZM31.4017 10.6683C30.883 10.6683 30.4611 10.2456 30.4611 9.72688C30.4611 9.20813 30.883 8.78625 31.4056 8.78625L37.2092 8.74797C37.7279 8.74797 38.1502 9.17063 38.1502 9.68938C38.1502 10.2081 37.7279 10.63 37.2052 10.63L31.4017 10.6683Z" fill="black"/>
<path d="M8.87246 44.8722H23.7154C24.0467 44.8722 24.3154 44.6035 24.3154 44.2722C24.3154 43.941 24.0467 43.6722 23.7154 43.6722H8.87246C7.98223 43.6722 7.25762 42.948 7.25762 42.0582V24.9011H32.6768V39.8082C32.6768 40.1394 32.9455 40.4082 33.2768 40.4082C33.608 40.4082 33.8768 40.1394 33.8768 39.8082V19.7394C33.8768 18.1871 32.6143 16.9246 31.0623 16.9246H30.3764C30.0451 16.9246 29.7764 17.1933 29.7764 17.5246C29.7764 17.8558 30.0451 18.1246 30.3764 18.1246H31.0623C31.9525 18.1246 32.6768 18.8488 32.6768 19.7394V23.7011H7.25762V19.7394C7.25762 18.8488 7.98223 18.1246 8.87246 18.1246C9.20371 18.1246 9.47246 17.8558 9.47246 17.5246C9.47246 17.1933 9.20371 16.9246 8.87246 16.9246C7.32051 16.9246 6.05762 18.1871 6.05762 19.7394V42.0582C6.05762 43.6097 7.32051 44.8722 8.87246 44.8722Z" fill="black"/>
<path d="M17.274 18.1246H22.7662C23.0974 18.1246 23.3662 17.8558 23.3662 17.5246C23.3662 17.1933 23.0974 16.9246 22.7662 16.9246H17.274C16.9428 16.9246 16.674 17.1933 16.674 17.5246C16.674 17.8558 16.9428 18.1246 17.274 18.1246Z" fill="black"/>
<path d="M12.9916 13.3878H12.8092C11.6595 13.3878 10.724 14.323 10.724 15.473V18.8183C10.724 19.9683 11.6595 20.9034 12.8092 20.9034H12.9916C14.1412 20.9034 15.0767 19.9683 15.0767 18.8183V15.473C15.0767 14.323 14.1412 13.3878 12.9916 13.3878ZM13.8767 18.8183C13.8767 19.3066 13.4795 19.7034 12.9916 19.7034H12.8092C12.3213 19.7034 11.924 19.3066 11.924 18.8183V15.473C11.924 14.9847 12.3213 14.5878 12.8092 14.5878H12.9916C13.4795 14.5878 13.8767 14.9847 13.8767 15.473V18.8183Z" fill="black"/>
<path d="M26.8143 13.3878C25.6647 13.3878 24.7291 14.323 24.7291 15.473V18.8183C24.7291 19.9683 25.6647 20.9034 26.8143 20.9034H26.9967C28.1463 20.9034 29.0819 19.9683 29.0819 18.8183V15.473C29.0819 14.323 28.1463 13.3878 26.9967 13.3878H26.8143ZM27.8819 15.473V18.8183C27.8819 19.3066 27.4846 19.7034 26.9967 19.7034H26.8143C26.3264 19.7034 25.9291 19.3066 25.9291 18.8183V15.473C25.9291 14.2888 27.8819 14.2875 27.8819 15.473Z" fill="black"/>
<path d="M16.9881 29.0996C16.9881 28.3277 16.36 27.6996 15.5881 27.6996H13.0111C12.2393 27.6996 11.6111 28.3277 11.6111 29.0996V31.6761C11.6111 32.448 12.2393 33.0761 13.0111 33.0761H15.5881C16.36 33.0761 16.9881 32.448 16.9881 31.6761V29.0996ZM15.7881 31.6761C15.7881 31.7863 15.6983 31.8761 15.5881 31.8761H13.0111C12.901 31.8761 12.8111 31.7863 12.8111 31.6761V29.0996C12.8111 28.9894 12.901 28.8996 13.0111 28.8996H15.5881C15.6983 28.8996 15.7881 28.9894 15.7881 29.0996V31.6761Z" fill="black"/>
<path d="M24.3467 33.0761H26.9232C27.6951 33.0761 28.3232 32.448 28.3232 31.6761V29.0996C28.3232 28.3277 27.6951 27.6996 26.9232 27.6996H24.3467C23.5748 27.6996 22.9467 28.3277 22.9467 29.0996V31.6761C22.9467 32.448 23.5748 33.0761 24.3467 33.0761ZM24.1467 29.0996C24.1467 28.9894 24.2365 28.8996 24.3467 28.8996H26.9232C27.0334 28.8996 27.1232 28.9894 27.1232 29.0996V31.6761C27.1232 31.7863 27.0334 31.8761 26.9232 31.8761H24.3467C24.2365 31.8761 24.1467 31.7863 24.1467 31.6761V29.0996Z" fill="black"/>
<path d="M15.5881 35.3965H13.0111C12.2393 35.3965 11.6111 36.0246 11.6111 36.7965V39.373C11.6111 40.1449 12.2393 40.773 13.0111 40.773H15.5881C16.36 40.773 16.9881 40.1449 16.9881 39.373V36.7965C16.9881 36.0246 16.36 35.3965 15.5881 35.3965ZM15.7881 39.373C15.7881 39.4832 15.6983 39.573 15.5881 39.573H13.0111C12.901 39.573 12.8111 39.4832 12.8111 39.373V36.7965C12.8111 36.6863 12.901 36.5965 13.0111 36.5965H15.5881C15.6983 36.5965 15.7881 36.6863 15.7881 36.7965V39.373Z" fill="black"/>
<path d="M24.3467 36.5965H26.9232C27.0334 36.5965 27.1232 36.6863 27.1232 36.7965V38.0848C27.1232 38.416 27.392 38.6848 27.7232 38.6848C28.0545 38.6848 28.3232 38.416 28.3232 38.0848V36.7965C28.3232 36.0246 27.6951 35.3965 26.9232 35.3965H24.3467C23.5748 35.3965 22.9467 36.0246 22.9467 36.7965V39.373C22.9467 40.8119 24.9467 41.2497 24.9467 40.173C24.9467 39.8418 24.6779 39.573 24.3467 39.573C24.2365 39.573 24.1467 39.4832 24.1467 39.373V36.7965C24.1467 36.6863 24.2365 36.5965 24.3467 36.5965Z" fill="black"/>
<path d="M27.6334 46.8191L28.5943 46.2066L30.5385 49.1933C30.8244 49.6324 31.4008 49.7684 31.856 49.498L33.6498 48.4237C34.151 48.1273 34.269 47.4644 33.9455 47.0222L31.8709 44.0534L32.6428 43.5464C33.285 43.1227 33.2047 42.1637 32.5146 41.8464L26.9791 39.2987C26.2992 38.9833 25.531 39.5266 25.6002 40.2737L26.1396 46.0878C26.2078 46.8125 27.0177 47.21 27.6334 46.8191ZM31.6439 42.7667L31.017 43.1792C30.5504 43.487 30.4427 44.1268 30.7595 44.5581L32.8279 47.5175L31.426 48.3566L29.4783 45.3644C29.292 45.0792 28.9783 44.9237 28.6588 44.9237C28.2062 44.9237 28.0218 45.1895 27.3002 45.6081L26.831 40.5519L31.6439 42.7667Z" fill="black"/>
<path d="M53.9424 30.9238C53.9498 27.7645 51.4707 25.2754 48.3103 25.2754C45.2279 25.2754 42.7021 27.7613 42.6709 30.8371C42.6397 33.9186 45.1067 36.5215 48.2908 36.5215C51.4338 36.5215 53.9351 34.0453 53.9424 30.9238ZM48.2439 35.3215C45.7933 35.2988 43.8459 33.291 43.8709 30.8496C43.8947 28.5064 45.794 26.4754 48.3443 26.4754C50.8166 26.4941 52.7482 28.4465 52.7424 30.9207C52.7369 33.3026 50.8668 35.3215 48.2439 35.3215Z" fill="black"/>
<path d="M50.1779 28.9355L47.3737 31.6534L46.4467 30.7034C46.2154 30.4659 45.8358 30.4628 45.5983 30.6925C45.3612 30.9237 45.3565 31.3042 45.5881 31.5409L46.9326 32.9191C47.1636 33.1569 47.5429 33.1602 47.7795 32.9316L51.0131 29.798C51.251 29.5667 51.2569 29.187 51.0264 28.9495C50.7955 28.7097 50.4151 28.7058 50.1779 28.9355Z" fill="black"/>
</svg>
