<svg width="40" height="41" viewBox="0 0 40 41" fill="none" xmlns="http://www.w3.org/2000/svg">
<path d="M27.9946 39.4189H12.0054V30.1594H27.9946V39.4189ZM13.0865 38.3378H26.9135V31.2405H13.0865V38.3378Z" fill="#161618"/>
<path d="M27.8433 39.419H27.4324L27.4757 38.3379C32.4541 38.5379 33.173 34.419 33.2 34.246V34.1866C34.2162 30.4028 31.6433 29.6352 31.5351 29.6082C29.8487 29.0676 27.8487 31.0622 27.8324 31.0839L27.0541 30.3271C27.1568 30.2244 29.5189 27.8298 31.8378 28.5703C32.7269 28.8543 33.4796 29.4569 33.9514 30.2622C34.5946 31.3433 34.6973 32.7649 34.2541 34.446C34.1784 34.9001 33.1784 39.419 27.8433 39.419Z" fill="#161618"/>
<path d="M12.1568 39.4189C6.82162 39.4189 5.82162 34.9 5.73513 34.4405C5.29189 32.7594 5.39459 31.354 6.03784 30.2567C6.51928 29.4379 7.2911 28.8301 8.2 28.554C10.4919 27.8189 12.8486 30.2189 12.9513 30.3216L12.173 31.0784C12.173 31.0784 10.1784 29.0567 8.4973 29.5919C8.36216 29.6297 5.79459 30.3757 6.8054 34.1811V34.2405C6.83243 34.4135 7.54594 38.5324 12.5297 38.3324L12.573 39.4135L12.1568 39.4189Z" fill="#161618"/>
<path d="M31 29.1487C30.9297 28.8784 29.2973 22.4676 29.7351 16.9V16.8352C29.8268 16.2977 29.8115 15.7474 29.69 15.2159C29.5685 14.6844 29.3432 14.1821 29.027 13.7379C28.3135 12.8892 27.0919 12.446 25.4054 12.446H14.5946C12.8973 12.446 11.6757 12.8892 10.9568 13.7595C10.6443 14.2053 10.4229 14.7083 10.3051 15.2398C10.1873 15.7712 10.1755 16.3207 10.2703 16.8568V16.9216C10.7081 22.4892 9.07568 28.9 9.00541 29.1703L7.95676 28.9C7.95676 28.8352 9.60541 22.4135 9.19459 17.0081C9.07652 16.3205 9.09849 15.616 9.25917 14.9371C9.41986 14.2581 9.71596 13.6186 10.1297 13.0568C11.0649 11.9216 12.573 11.3433 14.6108 11.3433H25.4054C27.4432 11.3433 28.9514 11.9216 29.8865 13.0568C30.3012 13.6221 30.597 14.2656 30.7559 14.9485C30.9147 15.6314 30.9334 16.3394 30.8108 17.0297C30.4 22.4352 32.027 28.8352 32.0487 28.9216L31 29.1487Z" fill="#161618"/>
<path d="M25.9838 31.2407H14.0162V11.9055H15.0973V30.1596H24.9027V11.9055H25.9838V31.2407Z" fill="#161618"/>
<path d="M14.5568 19.3757H25.4433V20.4568H14.5568V19.3757Z" fill="#161618"/>
<path d="M23.0649 12.446H16.9351V9.06226H23.0649V12.446ZM18.0162 11.365H21.9838V10.1433H18.0162V11.365Z" fill="#161618"/>
<path d="M24.1405 10.1432H15.8595C15.5854 10.1433 15.3143 10.0857 15.064 9.97403C14.8137 9.86238 14.5897 9.69926 14.4066 9.49527C14.2235 9.29129 14.0855 9.05102 14.0015 8.79013C13.9174 8.52924 13.8893 8.25357 13.9189 7.98108L14.3838 3.32703C14.4334 2.84634 14.6602 2.40132 15.0199 2.07859C15.3796 1.75587 15.8465 1.57852 16.3297 1.58108H23.6703C24.1561 1.57891 24.6251 1.75851 24.9852 2.08459C25.3452 2.41067 25.5703 2.85963 25.6162 3.34324L26.0811 7.99189C26.1107 8.26438 26.0826 8.54005 25.9985 8.80094C25.9145 9.06183 25.7765 9.3021 25.5934 9.50608C25.4103 9.71007 25.1863 9.87319 24.936 9.98484C24.6857 10.0965 24.4146 10.1541 24.1405 10.1541V10.1432ZM16.3297 2.66216C16.1132 2.66109 15.904 2.74082 15.743 2.88576C15.5821 3.0307 15.481 3.23044 15.4595 3.44595L14.9946 8.1C14.9808 8.22151 14.993 8.34456 15.0302 8.46103C15.0675 8.5775 15.1291 8.68474 15.2108 8.77568C15.2928 8.86628 15.3929 8.93862 15.5046 8.98798C15.6164 9.03734 15.7373 9.06262 15.8595 9.06216H24.1405C24.2627 9.06262 24.3836 9.03734 24.4954 8.98798C24.6071 8.93862 24.7072 8.86628 24.7892 8.77568C24.871 8.68474 24.9325 8.5775 24.9698 8.46103C25.007 8.34456 25.0192 8.22151 25.0054 8.1L24.5405 3.45135C24.5203 3.23487 24.4197 3.03381 24.2587 2.88775C24.0976 2.74169 23.8877 2.66122 23.6703 2.66216H16.3297Z" fill="#161618"/>
</svg>
