<svg width="168" height="41" viewBox="0 0 168 41" fill="none" xmlns="http://www.w3.org/2000/svg">
<path fill-rule="evenodd" clip-rule="evenodd" d="M28.9418 5.16144C35.388 11.608 35.388 22.1607 28.9418 28.6076L17.2146 40.3265L5.49561 28.6076C-0.950929 22.161 -0.950929 11.608 5.49561 5.16144C11.9424 -1.2851 22.4949 -1.2851 28.9418 5.16144ZM17.2146 3.55392C24.5776 3.55392 30.5493 9.52564 30.5493 16.8801C30.5493 24.2431 24.5776 30.2148 17.2146 30.2148C9.86011 30.2148 3.88839 24.2431 3.88839 16.8801C3.88839 9.52564 9.86011 3.55392 17.2146 3.55392Z" fill="#FDDE35"/>
<path fill-rule="evenodd" clip-rule="evenodd" d="M17.2147 14.8066C18.3641 14.8066 19.2967 15.7392 19.2967 16.8804C19.2967 18.0298 18.3641 18.9628 17.2147 18.9628C16.0737 18.9628 15.1405 18.0298 15.1405 16.8804C15.1408 15.7392 16.0737 14.8066 17.2147 14.8066Z" fill="#FDDE35"/>
<path fill-rule="evenodd" clip-rule="evenodd" d="M7.32825 19.4206C10.0934 19.2375 12.717 17.7216 14.2079 15.148C15.6985 12.5659 15.6985 9.53449 14.4744 7.05225C10.1684 8.25135 7.01181 12.1995 7.01181 16.8801C7.01181 17.7631 7.11993 18.6128 7.32825 19.4206Z" fill="white"/>
<path fill-rule="evenodd" clip-rule="evenodd" d="M24.3607 24.1761C22.8199 21.8775 20.1966 20.3616 17.2149 20.3616C14.2414 20.3616 11.6178 21.8775 10.077 24.1761C11.9175 25.9752 14.4412 27.0914 17.2149 27.0914C19.9963 27.0914 22.5202 25.9752 24.3607 24.1761Z" fill="white"/>
<path fill-rule="evenodd" clip-rule="evenodd" d="M19.9631 7.05225C18.739 9.53419 18.739 12.5659 20.2299 15.148C21.7207 17.7216 24.344 19.2375 27.1095 19.4206C27.3178 18.6128 27.4257 17.7631 27.4257 16.8801C27.4257 12.1995 24.2694 8.25135 19.9631 7.05225Z" fill="white"/>
<path d="M56.6965 35.1266C54.6965 35.1266 52.8431 34.7666 51.1365 34.0466C49.4298 33.2999 47.9498 32.2732 46.6965 30.9666C45.4698 29.6332 44.5098 28.0599 43.8165 26.2466C43.1231 24.4332 42.7765 22.4466 42.7765 20.2865C42.7765 18.1265 43.1098 16.1532 43.7765 14.3666C44.4698 12.5532 45.4298 10.9932 46.6565 9.68655C47.9098 8.35322 49.3898 7.32655 51.0965 6.60655C52.8031 5.88655 54.6565 5.52655 56.6565 5.52655C58.8965 5.52655 60.9098 5.97988 62.6965 6.88655C64.4831 7.76655 65.9365 9.01988 67.0565 10.6465C68.2031 12.2732 68.9098 14.1666 69.1765 16.3266H65.0165C64.6698 14.0599 63.7498 12.2999 62.2565 11.0466C60.7898 9.76655 58.9365 9.12655 56.6965 9.12655C54.8031 9.12655 53.1231 9.59322 51.6565 10.5266C50.2165 11.4332 49.0965 12.7265 48.2965 14.4066C47.4965 16.0599 47.0965 18.0199 47.0965 20.2865C47.0965 22.5266 47.4965 24.4999 48.2965 26.2065C49.1231 27.8865 50.2565 29.1932 51.6965 30.1266C53.1365 31.0599 54.8031 31.5266 56.6965 31.5266C58.9365 31.5266 60.8031 30.8999 62.2965 29.6466C63.8165 28.3666 64.7365 26.5932 65.0565 24.3265H69.2565C68.9631 26.5132 68.2431 28.4199 67.0965 30.0466C65.9498 31.6466 64.4831 32.8999 62.6965 33.8066C60.9365 34.6866 58.9365 35.1266 56.6965 35.1266Z" fill="white"/>
<path d="M85.7571 34.7266C85.6237 34.2199 85.5304 33.6599 85.4771 33.0466C85.4504 32.4332 85.4371 31.6865 85.4371 30.8065H85.2371V21.0866C85.2371 19.7799 84.9038 18.8066 84.2371 18.1666C83.5971 17.4999 82.5704 17.1666 81.1571 17.1666C79.7971 17.1666 78.7038 17.4332 77.8771 17.9666C77.0771 18.4999 76.6104 19.2599 76.4771 20.2466H72.5171C72.7038 18.3266 73.5704 16.7932 75.1171 15.6465C76.6638 14.4999 78.7304 13.9265 81.3171 13.9265C83.9838 13.9265 85.9838 14.5532 87.3171 15.8065C88.6504 17.0332 89.3171 18.8466 89.3171 21.2466V30.8065C89.3171 31.4199 89.3571 32.0466 89.4371 32.6866C89.5171 33.3266 89.6371 34.0066 89.7971 34.7266H85.7571ZM78.7171 35.1266C76.6371 35.1266 74.9838 34.6199 73.7571 33.6066C72.5304 32.5666 71.9171 31.1666 71.9171 29.4066C71.9171 27.5932 72.5571 26.1666 73.8371 25.1266C75.1438 24.0599 77.0104 23.3399 79.4371 22.9666L86.1571 21.8866V24.8066L80.0771 25.7666C78.7171 25.9799 77.6904 26.3399 76.9971 26.8466C76.3304 27.3532 75.9971 28.0866 75.9971 29.0466C75.9971 29.9799 76.3038 30.6866 76.9171 31.1666C77.5571 31.6199 78.4771 31.8466 79.6771 31.8466C81.2771 31.8466 82.5971 31.4599 83.6371 30.6866C84.7038 29.9132 85.2371 28.9399 85.2371 27.7666L85.7571 30.7266C85.2771 32.1399 84.4238 33.2332 83.1971 34.0066C81.9704 34.7532 80.4771 35.1266 78.7171 35.1266Z" fill="white"/>
<path d="M94.953 34.7266V14.3265H98.913V19.4066H99.113V34.7266H94.953ZM99.113 24.0866L98.593 19.2466C99.073 17.5132 99.8997 16.1932 101.073 15.2866C102.246 14.3799 103.646 13.9265 105.273 13.9265C105.886 13.9265 106.313 13.9799 106.553 14.0866V18.0066C106.42 17.9532 106.233 17.9266 105.993 17.9266C105.753 17.8999 105.46 17.8865 105.113 17.8865C103.113 17.8865 101.606 18.4066 100.593 19.4466C99.6064 20.4866 99.113 22.0332 99.113 24.0866Z" fill="white"/>
<path d="M118.48 35.1266C116.426 35.1266 114.613 34.6732 113.04 33.7666C111.493 32.8599 110.28 31.6066 109.4 30.0066C108.52 28.4066 108.08 26.5666 108.08 24.4866C108.08 22.3799 108.506 20.5399 109.36 18.9665C110.24 17.3665 111.466 16.1266 113.04 15.2466C114.613 14.3665 116.413 13.9265 118.44 13.9265C120.413 13.9265 122.12 14.3532 123.56 15.2065C125.026 16.0332 126.146 17.1932 126.92 18.6866C127.72 20.1799 128.12 21.9532 128.12 24.0066C128.12 24.3266 128.106 24.6332 128.08 24.9266C128.08 25.1932 128.053 25.4732 128 25.7666H110.88V22.6466H125.08L124.04 23.8866C124.04 21.6999 123.546 20.0332 122.56 18.8866C121.573 17.7399 120.2 17.1666 118.44 17.1666C116.546 17.1666 115.04 17.8199 113.92 19.1266C112.826 20.4066 112.28 22.1932 112.28 24.4866C112.28 26.8066 112.826 28.6199 113.92 29.9266C115.04 31.2332 116.586 31.8866 118.56 31.8866C119.76 31.8866 120.8 31.6466 121.68 31.1666C122.56 30.6599 123.213 29.9266 123.64 28.9665H127.56C126.893 30.8866 125.76 32.3932 124.16 33.4866C122.586 34.5799 120.693 35.1266 118.48 35.1266Z" fill="white"/>
<path d="M132.375 34.7266V14.3265H136.335V19.1266H136.535V34.7266H132.375ZM146.855 34.7266V21.6066C146.855 20.1932 146.495 19.1399 145.775 18.4466C145.082 17.7532 144.042 17.4066 142.655 17.4066C141.455 17.4066 140.388 17.6732 139.455 18.2066C138.548 18.7399 137.828 19.4732 137.295 20.4066C136.788 21.3399 136.535 22.4466 136.535 23.7266L136.015 18.8466C136.682 17.3266 137.708 16.1266 139.095 15.2466C140.482 14.3665 142.095 13.9265 143.935 13.9265C146.122 13.9265 147.842 14.5399 149.095 15.7666C150.348 16.9932 150.975 18.6199 150.975 20.6465V34.7266H146.855Z" fill="white"/>
<path d="M164.649 35.1266C162.275 35.1266 160.529 34.5799 159.409 33.4866C158.315 32.3666 157.769 30.7266 157.769 28.5666V9.64655L161.889 8.08655V28.6066C161.889 29.6732 162.169 30.4599 162.729 30.9666C163.289 31.4732 164.195 31.7266 165.449 31.7266C165.929 31.7266 166.355 31.6866 166.729 31.6066C167.102 31.5266 167.422 31.4332 167.689 31.3266V34.6866C167.395 34.8199 166.982 34.9266 166.449 35.0066C165.915 35.0866 165.315 35.1266 164.649 35.1266ZM153.689 17.6466V14.3265H167.689V17.6466H153.689Z" fill="white"/>
</svg>
