<svg width="60" height="61" viewBox="0 0 60 61" fill="none" xmlns="http://www.w3.org/2000/svg">
<g clip-path="url(#clip0_28_391)">
<path d="M52.36 43.3134H49.56C49.1867 43.3134 48.8934 43.0201 48.8934 42.6467C48.8934 42.2734 49.1867 41.9801 49.56 41.9801H51.6934V29.2467C51.6934 28.8734 51.9867 28.5801 52.36 28.5801C52.7334 28.5801 53.0267 28.8734 53.0267 29.2467V42.6467C53.0267 43.0201 52.7334 43.3134 52.36 43.3134ZM10.5067 43.3134H7.70671C7.33337 43.3134 7.04004 43.0201 7.04004 42.6467V29.2467C7.04004 28.8734 7.33337 28.5801 7.70671 28.5801C8.08004 28.5801 8.37337 28.8734 8.37337 29.2467V41.9801H10.5067C10.88 41.9801 11.1734 42.2734 11.1734 42.6467C11.1734 43.0201 10.88 43.3134 10.5067 43.3134Z" fill="#161618"/>
<path d="M52.36 29.9133C51.3734 29.9133 50.4667 29.5133 49.7867 28.8067C49.04 28.02 48.6534 26.9267 48.6534 25.6467C48.6534 16.22 40.9867 8.54002 31.5467 8.54002H28.5067C19.08 8.54002 11.4 16.2067 11.4 25.6467C11.4 28.4467 9.53336 29.9267 7.69336 29.9267C6.70669 29.9267 5.80003 29.5267 5.12003 28.82C4.37336 28.0333 3.98669 26.94 3.98669 25.66C3.98669 19.14 6.54669 12.98 11.1867 8.34001C15.8267 3.70001 21.9734 1.14001 28.5067 1.14001H31.5467C38.0667 1.14001 44.2267 3.70001 48.8667 8.34001C53.5067 12.98 56.0667 19.1267 56.0667 25.66C56.0667 28.4467 54.2 29.9133 52.36 29.9133ZM28.52 7.20668H31.56C36.4667 7.20668 41.08 9.12668 44.5734 12.62C48.0667 16.1133 49.9867 20.74 49.9867 25.6333C49.9867 27.6467 51.2134 28.58 52.36 28.58C53.5067 28.58 54.7334 27.66 54.7334 25.6333C54.7334 12.8467 44.3334 2.44668 31.5467 2.44668H28.5067C15.7334 2.46001 5.33336 12.86 5.33336 25.6467C5.33336 27.66 6.56003 28.5933 7.70669 28.5933C8.85336 28.5933 10.08 27.6733 10.08 25.6467C10.08 20.74 12 16.1267 15.4934 12.6333C18.9867 9.14001 23.6134 7.20668 28.52 7.20668Z" fill="#161618"/>
<path d="M20.4667 55.1934C17.32 55.1934 14.7467 52.6334 14.7467 49.4734V35.8334C14.7467 32.6867 17.3067 30.1134 20.4667 30.1134C23.6267 30.1134 26.1867 32.6734 26.1867 35.8334V49.4867C26.1867 52.6334 23.6134 55.1934 20.4667 55.1934ZM20.4667 31.4467C18.0534 31.4467 16.08 33.4201 16.08 35.8334V49.4867C16.08 51.9001 18.0534 53.8734 20.4667 53.8734C22.88 53.8734 24.8534 51.9001 24.8534 49.4867V35.8334C24.8534 33.4067 22.88 31.4467 20.4667 31.4467Z" fill="#161618"/>
<path d="M15.4134 49.5H12.9601C11.2401 49.5 9.84009 48.1 9.84009 46.38V38.9133C9.84009 37.1933 11.2401 35.7933 12.9601 35.7933H15.4134C15.7868 35.7933 16.0801 36.0867 16.0801 36.46C16.0801 36.8333 15.7868 37.1267 15.4134 37.1267H12.9601C11.9734 37.1267 11.1734 37.9267 11.1734 38.9133V46.38C11.1734 47.3667 11.9734 48.1667 12.9601 48.1667H15.4134C15.7868 48.1667 16.0801 48.46 16.0801 48.8333C16.0801 49.2067 15.7868 49.5 15.4134 49.5Z" fill="#161618"/>
<path d="M39.6 55.1934C36.4533 55.1934 33.88 52.6334 33.88 49.4734V35.8334C33.88 32.6867 36.44 30.1134 39.6 30.1134C42.7467 30.1134 45.32 32.6734 45.32 35.8334V49.4867C45.32 52.6334 42.76 55.1934 39.6 55.1934ZM39.6 31.4467C37.1867 31.4467 35.2133 33.4201 35.2133 35.8334V49.4867C35.2133 51.9001 37.1867 53.8734 39.6 53.8734C42.0133 53.8734 43.9867 51.9001 43.9867 49.4867V35.8334C43.9867 33.4067 42.0267 31.4467 39.6 31.4467Z" fill="#161618"/>
<path d="M47.1067 49.5H44.6534C44.28 49.5 43.9867 49.2067 43.9867 48.8333C43.9867 48.46 44.28 48.1667 44.6534 48.1667H47.1067C48.0934 48.1667 48.8934 47.3667 48.8934 46.38V38.9133C48.8934 37.9267 48.0934 37.1267 47.1067 37.1267H44.6534C44.28 37.1267 43.9867 36.8333 43.9867 36.46C43.9867 36.0867 44.28 35.7933 44.6534 35.7933H47.1067C48.8267 35.7933 50.2267 37.1933 50.2267 38.9133V46.38C50.2267 48.1 48.8267 49.5 47.1067 49.5Z" fill="#161618"/>
<path d="M47.1067 58.4334H32.3067C31.9333 58.4334 31.64 58.1401 31.64 57.7667C31.64 57.3934 31.9333 57.1001 32.3067 57.1001H46.44V48.8467C46.44 48.4734 46.7333 48.1801 47.1067 48.1801C47.48 48.1801 47.7733 48.4734 47.7733 48.8467V57.7667C47.7733 58.1267 47.48 58.4334 47.1067 58.4334Z" fill="#161618"/>
<path d="M29.7467 60.06C27.9334 60.06 26.52 59.0467 26.52 57.7533C26.52 56.46 27.9334 55.4467 29.7467 55.4467C31.56 55.4467 32.9734 56.46 32.9734 57.7533C32.9734 59.0467 31.56 60.06 29.7467 60.06ZM29.7467 56.7933C28.68 56.7933 27.8534 57.3133 27.8534 57.7667C27.8534 58.22 28.68 58.74 29.7467 58.74C30.8134 58.74 31.64 58.22 31.64 57.7667C31.64 57.3133 30.8134 56.7933 29.7467 56.7933Z" fill="#161618"/>
<path d="M38.2268 13.2467H21.8401C20.3601 13.2467 18.9201 12.62 17.9068 11.5133C17.6534 11.2467 17.6801 10.82 17.9468 10.5667C18.2134 10.3133 18.6401 10.34 18.8934 10.6067C19.6534 11.4333 20.7334 11.9133 21.8401 11.9133H38.2268C39.3468 11.9133 40.4134 11.4333 41.1734 10.6067C41.4268 10.34 41.8401 10.3133 42.1201 10.5667C42.4001 10.82 42.4134 11.2333 42.1601 11.5133C41.1468 12.62 39.7068 13.2467 38.2268 13.2467Z" fill="#161618"/>
</g>
<defs>
<clipPath id="clip0_28_391">
<rect width="60" height="60" fill="white" transform="translate(0 0.5)"/>
</clipPath>
</defs>
</svg>
