<svg width="168" height="41" viewBox="0 0 168 41" fill="none" xmlns="http://www.w3.org/2000/svg">
<path fill-rule="evenodd" clip-rule="evenodd" d="M28.9417 5.16144C35.3879 11.608 35.3879 22.1607 28.9417 28.6076L17.2145 40.3265L5.49555 28.6076C-0.950991 22.161 -0.950991 11.608 5.49555 5.16144C11.9424 -1.2851 22.4949 -1.2851 28.9417 5.16144ZM17.2145 3.55392C24.5775 3.55392 30.5492 9.52564 30.5492 16.8801C30.5492 24.2431 24.5775 30.2148 17.2145 30.2148C9.86005 30.2148 3.88833 24.2431 3.88833 16.8801C3.88833 9.52564 9.86005 3.55392 17.2145 3.55392Z" fill="#FDDE35"/>
<path fill-rule="evenodd" clip-rule="evenodd" d="M17.2147 14.8066C18.3642 14.8066 19.2968 15.7392 19.2968 16.8804C19.2968 18.0298 18.3642 18.9628 17.2147 18.9628C16.0738 18.9628 15.1406 18.0298 15.1406 16.8804C15.1409 15.7392 16.0738 14.8066 17.2147 14.8066Z" fill="#FDDE35"/>
<path fill-rule="evenodd" clip-rule="evenodd" d="M7.32816 19.4206C10.0934 19.2375 12.7169 17.7217 14.2078 15.148C15.6984 12.5659 15.6984 9.53449 14.4743 7.05225C10.1683 8.25136 7.01172 12.1995 7.01172 16.8801C7.01172 17.7631 7.11984 18.6128 7.32816 19.4206Z" fill="#161618"/>
<path fill-rule="evenodd" clip-rule="evenodd" d="M24.3607 24.1761C22.8198 21.8775 20.1966 20.3616 17.2148 20.3616C14.2413 20.3616 11.6177 21.8775 10.0769 24.1761C11.9174 25.9752 14.4411 27.0914 17.2148 27.0914C19.9962 27.0914 22.5201 25.9752 24.3607 24.1761Z" fill="#161618"/>
<path fill-rule="evenodd" clip-rule="evenodd" d="M19.9631 7.05225C18.739 9.5342 18.739 12.5659 20.2299 15.148C21.7208 17.7217 24.344 19.2375 27.1095 19.4206C27.3178 18.6128 27.4257 17.7631 27.4257 16.8801C27.4257 12.1995 24.2694 8.25136 19.9631 7.05225Z" fill="#161618"/>
<path d="M56.6964 35.1266C54.6964 35.1266 52.843 34.7666 51.1364 34.0466C49.4297 33.2999 47.9497 32.2732 46.6964 30.9666C45.4697 29.6332 44.5097 28.0599 43.8164 26.2466C43.123 24.4332 42.7764 22.4466 42.7764 20.2865C42.7764 18.1265 43.1097 16.1532 43.7764 14.3666C44.4697 12.5532 45.4297 10.9932 46.6564 9.68655C47.9097 8.35322 49.3897 7.32655 51.0964 6.60655C52.803 5.88655 54.6564 5.52655 56.6564 5.52655C58.8964 5.52655 60.9097 5.97988 62.6964 6.88655C64.483 7.76655 65.9364 9.01988 67.0564 10.6465C68.203 12.2732 68.9097 14.1666 69.1764 16.3266H65.0164C64.6697 14.0599 63.7497 12.2999 62.2564 11.0466C60.7897 9.76655 58.9364 9.12655 56.6964 9.12655C54.803 9.12655 53.123 9.59322 51.6564 10.5266C50.2164 11.4332 49.0964 12.7265 48.2964 14.4066C47.4964 16.0599 47.0964 18.0199 47.0964 20.2865C47.0964 22.5266 47.4964 24.4999 48.2964 26.2065C49.123 27.8865 50.2564 29.1932 51.6964 30.1266C53.1364 31.0599 54.803 31.5266 56.6964 31.5266C58.9364 31.5266 60.803 30.8999 62.2964 29.6466C63.8164 28.3666 64.7364 26.5932 65.0564 24.3265H69.2564C68.963 26.5132 68.243 28.4199 67.0964 30.0466C65.9497 31.6466 64.483 32.8999 62.6964 33.8066C60.9364 34.6866 58.9364 35.1266 56.6964 35.1266Z" fill="#161618"/>
<path d="M85.757 34.7266C85.6237 34.2199 85.5303 33.6599 85.477 33.0466C85.4503 32.4332 85.437 31.6865 85.437 30.8065H85.237V21.0866C85.237 19.7799 84.9037 18.8066 84.237 18.1666C83.597 17.4999 82.5703 17.1666 81.157 17.1666C79.797 17.1666 78.7037 17.4332 77.877 17.9666C77.077 18.4999 76.6103 19.2599 76.477 20.2466H72.517C72.7037 18.3266 73.5703 16.7932 75.117 15.6465C76.6637 14.4999 78.7303 13.9265 81.317 13.9265C83.9837 13.9265 85.9837 14.5532 87.317 15.8065C88.6503 17.0332 89.317 18.8466 89.317 21.2466V30.8065C89.317 31.4199 89.357 32.0466 89.437 32.6866C89.517 33.3266 89.637 34.0066 89.797 34.7266H85.757ZM78.717 35.1266C76.637 35.1266 74.9837 34.6199 73.757 33.6066C72.5303 32.5666 71.917 31.1666 71.917 29.4066C71.917 27.5932 72.557 26.1666 73.837 25.1266C75.1437 24.0599 77.0103 23.3399 79.437 22.9666L86.157 21.8866V24.8066L80.077 25.7666C78.717 25.9799 77.6903 26.3399 76.997 26.8466C76.3303 27.3532 75.997 28.0866 75.997 29.0466C75.997 29.9799 76.3037 30.6866 76.917 31.1666C77.557 31.6199 78.477 31.8466 79.677 31.8466C81.277 31.8466 82.597 31.4599 83.637 30.6866C84.7037 29.9132 85.237 28.9399 85.237 27.7666L85.757 30.7266C85.277 32.1399 84.4237 33.2332 83.197 34.0066C81.9703 34.7532 80.477 35.1266 78.717 35.1266Z" fill="#161618"/>
<path d="M94.9529 34.7266V14.3265H98.9129V19.4066H99.1129V34.7266H94.9529ZM99.1129 24.0866L98.5929 19.2466C99.0729 17.5132 99.8996 16.1932 101.073 15.2866C102.246 14.3799 103.646 13.9265 105.273 13.9265C105.886 13.9265 106.313 13.9799 106.553 14.0866V18.0066C106.42 17.9532 106.233 17.9266 105.993 17.9266C105.753 17.8999 105.46 17.8865 105.113 17.8865C103.113 17.8865 101.606 18.4066 100.593 19.4466C99.6063 20.4866 99.1129 22.0332 99.1129 24.0866Z" fill="#161618"/>
<path d="M118.479 35.1266C116.426 35.1266 114.613 34.6732 113.039 33.7666C111.493 32.8599 110.279 31.6066 109.399 30.0066C108.519 28.4066 108.079 26.5666 108.079 24.4866C108.079 22.3799 108.506 20.5399 109.359 18.9665C110.239 17.3665 111.466 16.1266 113.039 15.2466C114.613 14.3665 116.413 13.9265 118.439 13.9265C120.413 13.9265 122.119 14.3532 123.559 15.2065C125.026 16.0332 126.146 17.1932 126.919 18.6866C127.719 20.1799 128.119 21.9532 128.119 24.0066C128.119 24.3266 128.106 24.6332 128.079 24.9266C128.079 25.1932 128.053 25.4732 127.999 25.7666H110.879V22.6466H125.079L124.039 23.8866C124.039 21.6999 123.546 20.0332 122.559 18.8866C121.573 17.7399 120.199 17.1666 118.439 17.1666C116.546 17.1666 115.039 17.8199 113.919 19.1266C112.826 20.4066 112.279 22.1932 112.279 24.4866C112.279 26.8066 112.826 28.6199 113.919 29.9266C115.039 31.2332 116.586 31.8866 118.559 31.8866C119.759 31.8866 120.799 31.6466 121.679 31.1666C122.559 30.6599 123.213 29.9266 123.639 28.9665H127.559C126.893 30.8866 125.759 32.3932 124.159 33.4866C122.586 34.5799 120.693 35.1266 118.479 35.1266Z" fill="#161618"/>
<path d="M132.375 34.7266V14.3265H136.335V19.1266H136.535V34.7266H132.375ZM146.855 34.7266V21.6066C146.855 20.1932 146.495 19.1399 145.775 18.4466C145.081 17.7532 144.041 17.4066 142.655 17.4066C141.455 17.4066 140.388 17.6732 139.455 18.2066C138.548 18.7399 137.828 19.4732 137.295 20.4066C136.788 21.3399 136.535 22.4466 136.535 23.7266L136.015 18.8466C136.681 17.3266 137.708 16.1266 139.095 15.2466C140.481 14.3665 142.095 13.9265 143.935 13.9265C146.121 13.9265 147.841 14.5399 149.095 15.7666C150.348 16.9932 150.975 18.6199 150.975 20.6465V34.7266H146.855Z" fill="#161618"/>
<path d="M164.649 35.1266C162.275 35.1266 160.529 34.5799 159.409 33.4866C158.315 32.3666 157.769 30.7266 157.769 28.5666V9.64655L161.889 8.08655V28.6066C161.889 29.6732 162.169 30.4599 162.729 30.9666C163.289 31.4732 164.195 31.7266 165.449 31.7266C165.929 31.7266 166.355 31.6866 166.729 31.6066C167.102 31.5266 167.422 31.4332 167.689 31.3266V34.6866C167.395 34.8199 166.982 34.9266 166.449 35.0066C165.915 35.0866 165.315 35.1266 164.649 35.1266ZM153.689 17.6466V14.3265H167.689V17.6466H153.689Z" fill="#161618"/>
</svg>
