<svg width="40" height="41" viewBox="0 0 40 41" fill="none" xmlns="http://www.w3.org/2000/svg">
<g clip-path="url(#clip0_38_166)">
<path d="M28 11.1667H24V3.83333H25.3334C25.7015 3.83333 26 3.53483 26 3.16667V1.16667C26 0.798503 25.7015 0.5 25.3334 0.5H14.6667C14.2985 0.5 14 0.798503 14 1.16667V3.16667C14 3.53483 14.2985 3.83333 14.6667 3.83333H16V11.1667H12C10.1599 11.1689 8.66897 12.6598 8.66669 14.5V35.1667C8.66897 37.0068 10.1599 38.4977 12 38.5V39.8333C12 40.2015 12.2985 40.5 12.6667 40.5H15.3334C15.7015 40.5 16 40.2015 16 39.8333V38.5H24V39.8333C24 40.2015 24.2985 40.5 24.6667 40.5H27.3334C27.7015 40.5 28 40.2015 28 39.8333V38.5C29.8402 38.4977 31.3311 37.0068 31.3334 35.1667V14.5C31.3311 12.6598 29.8402 11.1689 28 11.1667ZM15.3334 1.83333H24.6667V2.5H15.3334V1.83333ZM17.3334 3.83333H22.6667V11.1667H17.3334V3.83333ZM14.6667 39.1667H13.3334V38.5H14.6667V39.1667ZM26.6667 39.1667H25.3334V38.5H26.6667V39.1667ZM30 35.1667C30 36.2712 29.1045 37.1667 28 37.1667H12C10.8955 37.1667 10 36.2712 10 35.1667V14.5C10 13.3955 10.8955 12.5 12 12.5H28C29.1045 12.5 30 13.3955 30 14.5V35.1667Z" fill="#161618"/>
<path d="M20 13.8333C19.6318 13.8333 19.3333 14.1318 19.3333 14.4999V35.1666C19.3333 35.5347 19.6318 35.8333 20 35.8333C20.3681 35.8333 20.6666 35.5347 20.6666 35.1666V14.4999C20.6666 14.1318 20.3681 13.8333 20 13.8333Z" fill="#161618"/>
<path d="M25.3334 15.1667C24.9652 15.1667 24.6667 15.4653 24.6667 15.8334V33.8334C24.6667 34.2016 24.9652 34.5001 25.3334 34.5001C25.7015 34.5001 26 34.2016 26 33.8334V15.8334C26 15.4653 25.7015 15.1667 25.3334 15.1667Z" fill="#161618"/>
<path d="M14.6667 15.1667C14.2985 15.1667 14 15.4653 14 15.8334V33.8334C14 34.2016 14.2985 34.5001 14.6667 34.5001C15.0348 34.5001 15.3333 34.2016 15.3333 33.8334V15.8334C15.3333 15.4653 15.0348 15.1667 14.6667 15.1667Z" fill="#161618"/>
</g>
<defs>
<clipPath id="clip0_38_166">
<rect width="40" height="40" fill="white" transform="translate(0 0.5)"/>
</clipPath>
</defs>
</svg>
