<svg width="107" height="16" viewBox="0 0 107 16" fill="none" xmlns="http://www.w3.org/2000/svg">
<path d="M3.85124 15.9392C3.43952 16.1504 2.97233 15.7803 3.05553 15.3078L3.94083 10.2626L0.183091 6.68298C-0.167831 6.34806 0.0145632 5.73581 0.484948 5.66968L5.70931 4.9273L8.03883 0.31199C8.24896 -0.103997 8.81747 -0.103997 9.0276 0.31199L11.3571 4.9273L16.5815 5.66968C17.0519 5.73581 17.2343 6.34806 16.8823 6.68298L13.1256 10.2626L14.0109 15.3078C14.0941 15.7803 13.6269 16.1504 13.2152 15.9392L8.53161 13.5329L3.85124 15.9392Z" fill="#161618"/>
<path d="M26.2507 15.9392C25.839 16.1504 25.3718 15.7803 25.455 15.3078L26.3403 10.2626L22.5826 6.68298C22.2316 6.34806 22.414 5.73581 22.8844 5.66968L28.1088 4.9273L30.4383 0.31199C30.6484 -0.103997 31.2169 -0.103997 31.4271 0.31199L33.7566 4.9273L38.981 5.66968C39.4513 5.73581 39.6337 6.34806 39.2817 6.68298L35.5251 10.2626L36.4104 15.3078C36.4936 15.7803 36.0264 16.1504 35.6147 15.9392L30.9311 13.5329L26.2507 15.9392Z" fill="#161618"/>
<path d="M48.6502 15.9392C48.2385 16.1504 47.7713 15.7803 47.8545 15.3078L48.7398 10.2626L44.9821 6.68298C44.6311 6.34806 44.8135 5.73581 45.2839 5.66968L50.5083 4.9273L52.8378 0.31199C53.0479 -0.103997 53.6164 -0.103997 53.8266 0.31199L56.1561 4.9273L61.3804 5.66968C61.8508 5.73581 62.0332 6.34806 61.6812 6.68298L57.9246 10.2626L58.8099 15.3078C58.8931 15.7803 58.4259 16.1504 58.0142 15.9392L53.3306 13.5329L48.6502 15.9392Z" fill="#161618"/>
<path d="M71.0497 15.9392C70.638 16.1504 70.1708 15.7803 70.254 15.3078L71.1393 10.2626L67.3815 6.68298C67.0306 6.34806 67.213 5.73581 67.6834 5.66968L72.9077 4.9273L75.2373 0.31199C75.4474 -0.103997 76.0159 -0.103997 76.226 0.31199L78.5556 4.9273L83.7799 5.66968C84.2503 5.73581 84.4327 6.34806 84.0807 6.68298L80.324 10.2626L81.2093 15.3078C81.2925 15.7803 80.8254 16.1504 80.4136 15.9392L75.7301 13.5329L71.0497 15.9392Z" fill="#161618"/>
<path opacity="0.2" d="M93.4492 15.9392C93.0374 16.1504 92.5703 15.7803 92.6535 15.3078L93.5388 10.2626L89.781 6.68298C89.4301 6.34806 89.6125 5.73581 90.0829 5.66968L95.3072 4.9273L97.6368 0.31199C97.8469 -0.103997 98.4154 -0.103997 98.6255 0.31199L100.955 4.9273L106.179 5.66968C106.65 5.73581 106.832 6.34806 106.48 6.68298L102.724 10.2626L103.609 15.3078C103.692 15.7803 103.225 16.1504 102.813 15.9392L98.1295 13.5329L93.4492 15.9392Z" fill="#161618"/>
</svg>
