<svg width="30" height="30" viewBox="0 0 30 30" fill="none" xmlns="http://www.w3.org/2000/svg">
<path d="M6.25 20.3125C5.26957 20.3125 4.35995 19.7309 4.11275 18.7821C3.87601 17.8735 3.75 16.9202 3.75 15.9375C3.75 9.7243 8.7868 4.6875 15 4.6875C21.2133 4.6875 26.25 9.7243 26.25 15.9375C26.25 16.9202 26.124 17.8735 25.8873 18.7821C25.64 19.7309 24.7304 20.3125 23.75 20.3125M21.25 25.3125C22.6307 25.3125 23.75 24.1932 23.75 22.8125V17.8125C23.75 16.4318 22.6307 15.3125 21.25 15.3125C19.8693 15.3125 18.75 16.4318 18.75 17.8125V22.8125C18.75 24.1932 19.8693 25.3125 21.25 25.3125ZM8.75 25.3125C10.1307 25.3125 11.25 24.1932 11.25 22.8125V17.8125C11.25 16.4318 10.1307 15.3125 8.75 15.3125C7.36929 15.3125 6.25 16.4318 6.25 17.8125V22.8125C6.25 24.1932 7.36929 25.3125 8.75 25.3125Z" stroke="#161618" stroke-width="1.875" stroke-linecap="round" stroke-linejoin="round"/>
</svg>
