<svg width="30" height="30" viewBox="0 0 30 30" fill="none" xmlns="http://www.w3.org/2000/svg">
<path d="M9.375 3.75H20.625M9.375 3.75V9.375C9.375 9.95543 9.375 10.2456 9.39907 10.4901C9.63289 12.864 11.511 14.7421 13.8849 14.9759C14.1294 15 14.4196 15 15 15M9.375 3.75H6.25M20.625 3.75V9.375C20.625 9.95543 20.625 10.2456 20.6009 10.4901C20.3671 12.864 18.489 14.7421 16.1151 14.9759C15.8706 15 15.5804 15 15 15M20.625 3.75H23.75M15 15C15.5804 15 15.8706 15 16.1151 15.0241C18.489 15.2579 20.3671 17.136 20.6009 19.5099C20.625 19.7544 20.625 20.0446 20.625 20.625V26.25M15 15C14.4196 15 14.1294 15 13.8849 15.0241C11.511 15.2579 9.63289 17.136 9.39907 19.5099C9.375 19.7544 9.375 20.0446 9.375 20.625V26.25M20.625 26.25H9.375M20.625 26.25H23.75M9.375 26.25H6.25" stroke="#161618" stroke-width="1.875" stroke-linecap="round" stroke-linejoin="round"/>
</svg>
