<svg width="36" height="35" viewBox="0 0 36 35" fill="none" xmlns="http://www.w3.org/2000/svg">
<path d="M22.9019 2.87259H6.4902C6.36019 2.87259 6.23551 2.92423 6.14358 3.01616C6.05165 3.10809 6 3.23278 6 3.36278V10.353C6 10.483 6.05165 10.6077 6.14358 10.6996C6.23551 10.7915 6.36019 10.8432 6.4902 10.8432H22.9019C23.0319 10.8432 23.1566 10.7915 23.2486 10.6996C23.3405 10.6077 23.3921 10.483 23.3921 10.353V3.36278C23.3921 3.23278 23.3405 3.10809 23.2486 3.01616C23.1566 2.92423 23.0319 2.87259 22.9019 2.87259ZM22.4117 9.86278H6.98039V3.85298H22.4117V9.86278Z" fill="black"/>
<path d="M19.2745 12.853H10.1274C9.99739 12.853 9.87271 12.9046 9.78078 12.9965C9.68885 13.0885 9.63721 13.2132 9.63721 13.3432C9.63721 13.4732 9.68885 13.5979 9.78078 13.6898C9.87271 13.7817 9.99739 13.8334 10.1274 13.8334H19.2745C19.4045 13.8334 19.5291 13.7817 19.6211 13.6898C19.713 13.5979 19.7646 13.4732 19.7646 13.3432C19.7646 13.2132 19.713 13.0885 19.6211 12.9965C19.5291 12.9046 19.4045 12.853 19.2745 12.853Z" fill="black"/>
<path d="M19.2745 15.2843H10.1274C9.99739 15.2843 9.87271 15.336 9.78078 15.4279C9.68885 15.5198 9.63721 15.6445 9.63721 15.7745C9.63721 15.9045 9.68885 16.0292 9.78078 16.1211C9.87271 16.2131 9.99739 16.2647 10.1274 16.2647H19.2745C19.4037 16.2622 19.5269 16.2098 19.6183 16.1184C19.7097 16.027 19.7621 15.9037 19.7646 15.7745C19.7646 15.6445 19.713 15.5198 19.6211 15.4279C19.5291 15.336 19.4045 15.2843 19.2745 15.2843Z" fill="black"/>
<path d="M14.696 19.1765C12.7353 19.1765 11.8235 24.4804 11.8235 25.5588C11.8235 26.3207 12.1261 27.0513 12.6648 27.59C13.2035 28.1287 13.9342 28.4314 14.696 28.4314C15.4579 28.4314 16.1885 28.1287 16.7272 27.59C17.2659 27.0513 17.5686 26.3207 17.5686 25.5588C17.5686 24.4804 16.6078 19.1765 14.696 19.1765ZM14.696 27.4608C14.195 27.4556 13.7163 27.253 13.3638 26.8968C13.0113 26.5407 12.8137 26.0599 12.8137 25.5588C12.8137 23.8922 14.0196 20.1569 14.7058 20.1569C15.3921 20.1569 16.598 23.8922 16.598 25.5588C16.5993 25.809 16.551 26.0569 16.4559 26.2882C16.3607 26.5196 16.2207 26.7297 16.0438 26.9066C15.8669 27.0835 15.6568 27.2235 15.4254 27.3187C15.1941 27.4138 14.9462 27.4621 14.696 27.4608Z" fill="black"/>
<path d="M35.3627 7.35298L32.9411 4.75494C32.8993 4.70284 32.8473 4.65985 32.7882 4.6286C32.7291 4.59735 32.6643 4.5785 32.5977 4.57322C32.5311 4.56793 32.4641 4.57631 32.4009 4.59786C32.3376 4.6194 32.2795 4.65365 32.2299 4.69849C32.1804 4.74334 32.1406 4.79784 32.1129 4.85864C32.0851 4.91944 32.0702 4.98526 32.0688 5.05207C32.0675 5.11887 32.0798 5.18524 32.1051 5.2471C32.1303 5.30896 32.168 5.36501 32.2156 5.4118L34.4509 7.9118V8.00003C33.8189 8.02035 33.2194 8.28514 32.7787 8.73866C32.3379 9.19218 32.0904 9.79902 32.0882 10.4314V10.7941C32.0904 11.4265 32.3379 12.0334 32.7787 12.4869C33.2194 12.9404 33.8189 13.2052 34.4509 13.2255V31.6373C34.4509 31.9363 34.3322 32.223 34.1207 32.4345C33.9093 32.6459 33.6225 32.7647 33.3235 32.7647C33.0245 32.7647 32.7377 32.6459 32.5263 32.4345C32.3148 32.223 32.196 31.9363 32.196 31.6373V19.1373C32.1951 18.3527 31.9126 17.5946 31.3998 17.0008C30.887 16.407 30.178 16.0171 29.4019 15.902V13.3432C29.4019 13.2132 29.3503 13.0885 29.2584 12.9965C29.1664 12.9046 29.0417 12.853 28.9117 12.853H26.098V4.43141C26.0967 3.84736 25.9803 3.2693 25.7553 2.73032C25.5303 2.19134 25.2012 1.70204 24.7868 1.29042C24.3725 0.8788 23.881 0.552952 23.3405 0.331531C22.8001 0.110109 22.2213 -0.00253667 21.6372 4.33354e-05H7.72548C6.551 0.00263315 5.42537 0.47034 4.59489 1.30082C3.76441 2.1313 3.2967 3.25694 3.29411 4.43141V12.853H0.490196C0.360188 12.853 0.235504 12.9046 0.143575 12.9965C0.0516451 13.0885 0 13.2132 0 13.3432V19.3334C0 19.4634 0.0516451 19.588 0.143575 19.68C0.235504 19.7719 0.360188 19.8235 0.490196 19.8235H3.29411V32.1177H1.92157C1.79234 32.1202 1.66911 32.1726 1.57772 32.264C1.48633 32.3554 1.43388 32.4786 1.43137 32.6078V34.5098C1.43137 34.6398 1.48302 34.7645 1.57495 34.8564C1.66688 34.9484 1.79156 35 1.92157 35H27.5196C27.6496 35 27.7743 34.9484 27.8662 34.8564C27.9581 34.7645 28.0098 34.6398 28.0098 34.5098V32.6078C28.0098 32.4778 27.9581 32.3532 27.8662 32.2612C27.7743 32.1693 27.6496 32.1177 27.5196 32.1177H26.147V19.8235H28.9608C29.0908 19.8235 29.2154 19.7719 29.3074 19.68C29.3993 19.588 29.4509 19.4634 29.4509 19.3334V16.8824C29.9654 16.9944 30.426 17.2793 30.756 17.6895C31.086 18.0998 31.2655 18.6107 31.2647 19.1373V31.6373C31.2647 32.1963 31.4867 32.7324 31.882 33.1277C32.2773 33.523 32.8135 33.7451 33.3725 33.7451C33.9315 33.7451 34.4677 33.523 34.863 33.1277C35.2583 32.7324 35.4804 32.1963 35.4804 31.6373V7.69611C35.4865 7.5709 35.4444 7.4481 35.3627 7.35298ZM1.04902 18.8432V13.8334H3.36274V18.8432H1.04902ZM26.9804 34.0196H2.41176V33.098H26.9804V34.0196ZM4.27451 32.1177V4.43141C4.27709 3.51695 4.64151 2.64068 5.28813 1.99406C5.93475 1.34744 6.81102 0.983021 7.72548 0.980434H21.6372C22.5517 0.983021 23.428 1.34744 24.0746 1.99406C24.7212 2.64068 25.0856 3.51695 25.0882 4.43141V32.1177H4.27451ZM28.4215 18.8432H26.098V13.8334H28.4215V18.8432ZM33.0686 10.7451V10.3824C33.0681 10.0082 33.2111 9.64803 33.4683 9.37622C33.7256 9.10442 34.0773 8.94169 34.4509 8.9216V12.2059C34.0773 12.1858 33.7256 12.0231 33.4683 11.7513C33.2111 11.4795 33.0681 11.1193 33.0686 10.7451Z" fill="black"/>
</svg>
