<svg width="18" height="18" viewBox="0 0 18 18" fill="none" xmlns="http://www.w3.org/2000/svg">
<path fill-rule="evenodd" clip-rule="evenodd" d="M9 18C13.9706 18 18 13.9706 18 9C18 4.02943 13.9706 0 9 0C4.02943 0 0 4.02943 0 9C0 13.9706 4.02943 18 9 18ZM12.2587 7.64335C12.5291 7.37298 12.5291 6.93467 12.2587 6.66431C11.9884 6.39395 11.5501 6.39395 11.2797 6.66431L8.07692 9.86705L6.7203 8.51049C6.44994 8.24012 6.01159 8.24012 5.74123 8.51049C5.47087 8.78086 5.47087 9.21914 5.74123 9.48951L7.58742 11.3357C7.85778 11.606 8.29606 11.606 8.56643 11.3357L12.2587 7.64335Z" fill="#161618"/>
</svg>
