<svg width="60" height="60" viewBox="0 0 60 60" fill="none" xmlns="http://www.w3.org/2000/svg">
<path d="M54.9218 18.8922H52.0384L50.9522 16.5414C48.7075 11.683 43.7988 8.54382 38.4469 8.54382H21.5531C16.2014 8.54382 11.2928 11.683 9.04829 16.5408L7.96173 18.8922H5.07822C2.92197 18.8922 1.16779 20.6467 1.16779 22.8032C1.16779 23.9648 2.11267 24.9094 3.274 24.9094H4.5824C3.00599 26.0247 1.97193 27.8583 1.97193 29.9318V38.0001C1.97193 38.7406 2.11009 39.4478 2.35091 40.1059V47.8587C2.35091 49.8423 3.9647 51.4561 5.9481 51.4561H10.4584C12.442 51.4561 14.0558 49.8423 14.0558 47.8587V44.1536H45.9443V47.8587C45.9443 49.8423 47.5581 51.4561 49.5417 51.4561H54.0523C56.0354 51.4561 57.6491 49.8423 57.6491 47.8587V40.1065C57.8901 39.4482 58.0284 38.7408 58.0284 38V29.9317C58.0284 27.8582 56.9943 26.0247 55.4179 24.9093H56.726C57.8876 24.9093 58.8322 23.9646 58.8322 22.8031C58.8322 20.6468 57.0783 18.8922 54.9218 18.8922ZM10.0746 17.0151C12.135 12.5559 16.6406 9.67445 21.5531 9.67445H38.4469C43.3594 9.67445 47.865 12.5559 49.9254 17.0151L53.108 23.9031C52.7095 23.8218 52.2974 23.7788 51.8753 23.7788H8.12497C7.70275 23.7788 7.29036 23.8218 6.89181 23.9032L10.0746 17.0151ZM2.29841 22.8032C2.29841 21.27 3.54529 20.0229 5.07822 20.0229H7.43931L5.70376 23.7788H3.274C2.73599 23.7788 2.29841 23.341 2.29841 22.8032ZM12.9251 47.8588C12.9251 49.2191 11.8184 50.3256 10.4583 50.3256H5.94798C4.5879 50.3256 3.48154 49.2193 3.48154 47.8588V42.0253C4.61052 43.3261 6.2713 44.1537 8.12486 44.1537H12.925L12.9251 47.8588ZM22.2336 43.0231V42.1033C22.2336 41.3889 22.815 40.8081 23.5288 40.8081H36.1579C36.8722 40.8081 37.453 41.3889 37.453 42.1033V43.0231H22.2336ZM56.5185 47.8588C56.5185 49.2191 55.4121 50.3256 54.0523 50.3256H49.5417C48.1814 50.3256 47.0749 49.2193 47.0749 47.8588V44.1537H51.8754C53.7287 44.1537 55.3894 43.3262 56.5185 42.0256V47.8588ZM56.8977 29.9318V38.0001C56.8977 40.7699 54.6447 43.023 51.8753 43.023H38.5838V42.1032C38.5838 40.7655 37.4956 39.6773 36.1579 39.6773H23.5288C22.1911 39.6773 21.1031 40.7655 21.1031 42.1032V43.023H8.12497C5.35572 43.023 3.10255 40.7699 3.10255 38.0001V29.9318C3.10255 27.1626 5.3556 24.9094 8.12497 24.9094H51.8754C54.6447 24.9095 56.8977 27.1626 56.8977 29.9318ZM56.726 23.7788H54.2961L52.5608 20.0229H54.9218C56.4544 20.0229 57.7016 21.2702 57.7016 22.8032C57.7016 23.341 57.2638 23.7788 56.726 23.7788Z" fill="black"/>
<path d="M43.8684 36.4316V37.3828C43.8684 37.6953 44.1213 37.9481 44.4337 37.9481H50.1793C52.4843 37.9481 54.3597 36.0726 54.3597 33.7677V31.9032C54.3597 31.5907 54.1068 31.3379 53.7944 31.3379H48.962C46.1534 31.338 43.8684 33.623 43.8684 36.4316ZM53.2291 33.7677C53.2291 35.4493 51.8611 36.8175 50.1793 36.8175H44.999V36.4316C44.999 34.2464 46.7768 32.4686 48.962 32.4686H53.2291V33.7677Z" fill="black"/>
<path d="M11.0963 31.338H6.2638C5.95161 31.338 5.69849 31.5909 5.69849 31.9033V33.7678C5.69849 36.0727 7.57372 37.9482 9.87868 37.9482H15.6246C15.9368 37.9482 16.1899 37.6953 16.1899 37.3829V36.4317C16.1898 33.6231 13.9048 31.338 11.0963 31.338ZM15.0592 36.8175H9.87868C8.19728 36.8175 6.82923 35.4494 6.82923 33.7677V32.4686H11.0964C13.2816 32.4686 15.0593 34.2464 15.0593 36.4316L15.0592 36.8175Z" fill="black"/>
<path d="M40.1699 29.3417H19.8886C18.5363 29.3417 17.4362 30.4415 17.4362 31.8415C17.4362 34.8863 19.8182 37.448 22.8586 37.6726C27.6561 38.0283 32.5056 37.9714 37.2273 37.623C40.2523 37.3994 42.6218 34.8388 42.6218 31.7935C42.6218 30.4415 41.522 29.3417 40.1699 29.3417ZM37.1445 36.4956C32.1983 36.86 27.4199 36.8777 22.9425 36.5453C20.4887 36.3637 18.567 34.2978 18.567 31.7935C18.567 31.0647 19.1599 30.4723 19.8887 30.4723H40.17C40.8988 30.4723 41.4912 31.0647 41.4912 31.7935C41.4911 34.2503 39.582 36.3156 37.1445 36.4956Z" fill="black"/>
<path d="M34.1599 20.5452L40.9992 13.7059C41.22 13.4851 41.22 13.1273 40.9992 12.9064C40.7784 12.6856 40.4207 12.6856 40.1998 12.9064L33.3605 19.7457C33.1397 19.9665 33.1397 20.3243 33.3605 20.5452C33.5813 20.766 33.939 20.766 34.1599 20.5452Z" fill="black"/>
<path d="M37.5464 20.6318C37.3256 20.8526 37.3256 21.2103 37.5464 21.4312C37.7672 21.652 38.1249 21.6521 38.3458 21.4312L41.8853 17.8923C42.106 17.6715 42.106 17.3137 41.8853 17.0928C41.6645 16.8721 41.3067 16.8721 41.0858 17.0928L37.5464 20.6318Z" fill="black"/>
</svg>
